<?xml version="1.0" standalone="no"?>
<!DOCTYPE svg PUBLIC "-//W3C//DTD SVG 20010904//EN"
 "http://www.w3.org/TR/2001/REC-SVG-20010904/DTD/svg10.dtd">
<svg version="1.0" xmlns="http://www.w3.org/2000/svg"
 width="3417.000000pt" height="3417.000000pt" viewBox="0 0 3417.000000 3417.000000"
 preserveAspectRatio="xMidYMid meet">
<metadata>
Created by potrace 1.11, written by Peter Selinger 2001-2013
</metadata>
<g transform="translate(0.000000,3417.000000) scale(0.100000,-0.100000)"
fill="#000000" stroke="none">
<path d="M8627 33033 c-1 -1 -50 -4 -109 -8 -59 -3 -116 -8 -127 -10 -11 -2
-51 -7 -88 -10 -37 -4 -71 -9 -74 -11 -6 -3 -46 -11 -104 -19 -20 -3 -145 -31
-177 -40 -10 -3 -26 -7 -36 -9 -117 -26 -408 -126 -528 -181 -30 -14 -57 -25
-59 -25 -16 0 -381 -189 -427 -221 -14 -11 -29 -19 -32 -19 -4 0 -19 -8 -34
-19 -15 -10 -65 -43 -112 -74 -47 -30 -116 -78 -155 -106 -38 -28 -81 -59 -94
-68 -34 -25 -178 -141 -221 -178 -19 -16 -87 -82 -150 -145 -375 -376 -627
-832 -745 -1349 -14 -63 -28 -132 -31 -155 -3 -23 -7 -52 -10 -66 -26 -164
-26 -601 1 -741 2 -9 6 -40 10 -70 3 -30 10 -70 15 -89 5 -19 11 -51 14 -71 6
-41 75 -309 82 -321 3 -4 7 -16 9 -25 5 -25 91 -257 117 -318 51 -115 170
-340 238 -450 203 -327 412 -557 835 -920 331 -283 415 -385 422 -512 4 -93
-16 -127 -180 -307 -45 -49 -87 -94 -92 -100 -10 -11 -157 -176 -218 -244
-105 -119 -281 -344 -357 -457 -19 -27 -36 -52 -40 -55 -12 -11 -171 -262
-249 -395 -70 -118 -263 -497 -314 -615 -40 -92 -117 -280 -117 -286 0 -3 -6
-20 -14 -37 -13 -30 -76 -205 -110 -310 -85 -255 -215 -796 -240 -992 -3 -22
-14 -101 -25 -175 -18 -127 -23 -166 -36 -300 -3 -30 -7 -75 -10 -100 -25
-241 -26 -984 -1 -1175 3 -17 7 -58 10 -91 l6 -61 -63 -56 c-35 -31 -74 -66
-88 -77 -143 -122 -559 -532 -741 -730 -91 -98 -287 -322 -353 -401 -45 -54
-232 -286 -250 -310 -350 -462 -505 -684 -714 -1019 -344 -550 -639 -1134
-874 -1732 -178 -450 -325 -918 -433 -1373 -35 -149 -98 -443 -107 -500 -5
-27 -41 -240 -52 -305 -3 -14 -9 -61 -15 -105 -6 -44 -13 -91 -15 -105 -2 -14
-6 -50 -10 -80 -3 -30 -8 -71 -10 -90 -2 -19 -7 -60 -10 -90 -3 -30 -8 -71
-10 -90 -3 -19 -8 -71 -11 -115 -3 -44 -7 -98 -9 -120 -25 -343 -25 -1191 0
-1355 2 -14 7 -65 10 -115 3 -49 7 -103 9 -120 2 -16 7 -61 10 -100 4 -38 9
-81 11 -95 2 -14 7 -50 10 -80 9 -91 34 -271 51 -365 3 -16 7 -41 9 -55 1 -14
8 -56 15 -95 7 -38 14 -82 16 -96 2 -14 8 -48 15 -75 6 -27 13 -62 16 -79 3
-23 53 -251 78 -355 2 -8 11 -49 20 -90 42 -188 162 -597 249 -855 163 -483
326 -876 552 -1330 124 -250 167 -334 237 -457 15 -27 39 -69 53 -95 218 -394
607 -971 911 -1353 145 -182 300 -370 312 -380 3 -3 33 -36 66 -75 33 -38 64
-75 70 -81 5 -6 44 -49 85 -94 208 -232 558 -582 814 -815 227 -207 625 -535
861 -710 22 -16 45 -33 50 -37 221 -173 675 -483 927 -633 290 -173 757 -386
1513 -689 767 -308 1731 -637 2384 -812 29 -8 92 -25 140 -39 80 -22 388 -103
421 -110 8 -2 51 -13 95 -24 90 -23 407 -99 439 -105 24 -5 161 -35 191 -42
11 -3 52 -11 90 -19 39 -8 113 -23 165 -35 52 -11 109 -23 125 -26 17 -3 98
-18 180 -34 83 -16 164 -32 180 -34 42 -7 207 -36 230 -40 18 -3 65 -11 135
-21 14 -3 64 -11 111 -19 48 -8 108 -18 135 -21 27 -3 60 -8 74 -10 40 -7 128
-20 280 -41 19 -2 49 -6 65 -9 17 -2 53 -7 80 -10 28 -3 64 -8 80 -10 30 -4
73 -10 170 -20 28 -3 64 -7 80 -10 17 -2 62 -7 100 -10 39 -4 81 -8 95 -10 14
-2 57 -6 95 -10 39 -3 86 -8 105 -10 19 -2 67 -7 105 -10 39 -3 97 -8 130 -11
33 -2 87 -7 120 -9 33 -2 89 -7 125 -9 416 -33 888 -49 1445 -49 483 0 1002
15 1300 38 33 2 96 7 140 10 110 8 200 15 263 20 213 19 292 27 407 39 22 3
69 8 105 12 102 10 110 11 205 23 154 20 169 22 195 26 14 2 50 7 80 10 30 3
62 8 70 10 8 2 38 6 65 10 46 6 79 10 145 20 24 4 193 31 255 41 25 5 148 26
220 38 40 7 91 17 140 26 28 5 62 11 76 14 14 2 73 14 130 25 57 12 113 23
124 25 11 2 76 16 145 31 69 15 134 28 145 31 11 2 70 15 130 29 61 14 141 32
179 40 38 9 106 25 150 36 45 12 88 22 96 24 8 2 42 10 75 18 33 9 71 18 85
21 14 2 61 14 105 26 44 12 91 24 105 26 14 3 43 10 65 16 22 6 47 13 55 14
28 6 644 175 765 211 562 164 1081 335 1565 515 307 114 794 310 968 389 35
16 65 29 67 29 4 0 88 38 234 106 51 24 95 44 97 44 5 0 330 157 439 212 238
121 417 217 660 353 334 187 797 480 1103 699 63 44 124 88 135 96 76 51 450
340 467 359 3 3 37 32 76 63 39 31 77 62 85 70 8 7 44 38 79 68 36 30 67 57
70 60 3 3 25 23 50 44 230 200 617 585 815 811 39 44 78 89 88 100 18 19 55
62 137 159 19 23 49 59 65 81 17 21 42 52 57 69 14 17 89 117 167 221 77 105
144 195 149 200 44 54 311 469 419 650 283 475 601 1145 766 1615 9 25 32 90
52 145 130 364 300 989 351 1290 2 17 7 37 9 45 2 8 7 31 10 50 3 19 10 60 15
90 9 53 15 88 24 148 3 15 8 47 11 72 3 25 8 52 10 60 2 8 7 44 10 80 4 36 8
72 10 80 2 8 6 49 10 90 4 41 9 83 11 93 1 10 6 57 9 105 4 48 8 99 10 114 26
205 26 1007 0 1283 -1 17 -5 68 -9 115 -4 47 -9 101 -11 120 -2 19 -7 62 -10
95 -3 33 -8 71 -10 85 -2 14 -9 63 -15 110 -19 142 -26 191 -51 335 -14 85
-56 294 -80 400 -12 50 -22 99 -25 110 -3 17 -11 51 -20 88 -1 4 -2 8 -4 10
-1 1 -3 9 -5 17 -8 39 -39 156 -71 265 -190 651 -430 1228 -754 1810 -194 349
-506 815 -758 1131 l-89 111 38 102 c103 281 183 535 264 841 12 45 94 400 98
425 3 17 10 55 16 85 32 158 35 177 65 380 27 183 33 227 41 315 3 33 8 76 10
95 41 345 52 1103 20 1430 -2 19 -6 67 -9 105 -16 174 -30 301 -41 375 -2 14
-9 61 -15 105 -6 44 -12 91 -15 105 -2 14 -11 68 -20 120 -42 247 -124 609
-190 835 -14 50 -35 122 -46 160 -11 39 -24 79 -29 90 -5 11 -25 72 -46 135
-77 239 -218 588 -349 864 -30 65 -54 120 -53 121 2 1 77 40 168 85 706 356
1263 796 1758 1390 449 539 672 917 786 1335 57 211 71 327 71 595 -1 203 -11
300 -50 485 -85 395 -289 816 -573 1185 -37 47 -69 87 -72 90 -3 3 -39 43 -80
89 -234 264 -515 498 -816 679 -207 125 -406 221 -630 305 -112 42 -307 102
-364 113 -14 3 -38 9 -55 14 -39 11 -216 47 -278 55 -27 4 -56 8 -65 10 -10 1
-51 6 -92 10 -41 4 -88 9 -105 11 -39 6 -444 6 -470 1 -11 -3 -56 -8 -99 -12
-43 -4 -87 -8 -97 -10 -9 -2 -39 -7 -66 -11 -175 -25 -491 -111 -628 -169
-138 -60 -213 -95 -295 -138 -717 -380 -1294 -1064 -1610 -1909 l-36 -96 -130
126 c-134 131 -276 265 -335 316 -19 16 -65 57 -104 91 -116 103 -308 257
-474 382 -53 40 -101 76 -106 81 -53 44 -445 309 -626 423 -309 194 -886 505
-1179 637 -209 94 -345 154 -400 177 -182 75 -233 96 -330 133 -234 91 -691
253 -750 267 -8 2 -80 24 -160 48 -356 111 -906 256 -1245 328 -77 17 -147 32
-155 34 -126 29 -627 123 -745 140 -11 1 -63 10 -115 19 -52 8 -117 18 -145
22 -27 3 -59 8 -69 10 -11 2 -56 8 -100 14 -45 6 -92 13 -106 15 -14 2 -50 7
-80 10 -30 3 -66 8 -80 10 -14 2 -53 7 -87 10 -34 3 -70 8 -81 10 -19 3 -120
13 -217 21 -27 2 -70 6 -95 9 -116 13 -288 25 -555 40 -433 25 -1384 25 -1625
1 -19 -2 -87 -7 -150 -11 -63 -3 -131 -8 -150 -10 -36 -4 -85 -9 -225 -21 -44
-3 -89 -8 -99 -10 -10 -2 -50 -6 -88 -9 -38 -4 -76 -8 -86 -9 -9 -2 -46 -7
-82 -11 -36 -4 -72 -9 -81 -10 -9 -2 -40 -6 -70 -10 -30 -3 -97 -13 -149 -21
-52 -9 -111 -18 -130 -20 -66 -9 -78 -11 -170 -29 -45 -9 -67 -13 -104 -19
-19 -3 -57 -11 -83 -17 -27 -6 -57 -12 -68 -15 -62 -12 -265 -59 -365 -85
-732 -190 -1419 -480 -2026 -855 l-101 -62 -33 86 c-121 320 -306 641 -529
917 -135 168 -307 339 -502 500 -47 39 -195 142 -286 198 -367 226 -816 368
-1273 403 -81 6 -319 11 -323 7z m303 -757 c102 -9 157 -18 265 -41 356 -75
723 -280 1017 -568 209 -203 352 -401 501 -690 129 -250 213 -496 258 -762 26
-152 101 -238 239 -275 95 -26 235 -8 330 40 19 10 94 62 165 116 251 188 533
363 820 509 141 71 404 192 440 201 6 2 55 21 110 44 237 97 713 243 995 305
116 25 412 85 440 89 19 3 44 7 55 9 11 3 45 8 75 13 30 4 57 8 60 9 3 1 34 5
70 10 36 5 67 9 70 10 3 1 32 5 65 9 33 4 74 9 90 12 82 11 165 19 275 29 41
3 91 8 110 10 19 3 79 7 133 10 54 4 112 8 129 10 200 25 1264 25 1648 0 25
-2 99 -6 165 -10 66 -4 136 -8 155 -10 19 -2 82 -6 140 -10 58 -4 116 -8 130
-10 14 -3 59 -7 101 -10 41 -3 84 -7 95 -9 11 -2 60 -7 110 -11 49 -3 96 -8
104 -10 15 -4 73 -11 165 -20 64 -6 133 -15 165 -20 14 -3 50 -7 80 -10 30 -4
62 -8 70 -11 8 -2 38 -6 65 -10 28 -3 93 -12 145 -20 52 -9 109 -17 125 -19
17 -2 44 -6 60 -9 17 -3 59 -11 95 -16 62 -10 83 -14 140 -25 14 -2 72 -13
130 -24 58 -11 116 -22 130 -25 14 -3 61 -13 105 -22 44 -8 90 -17 102 -20 12
-2 93 -20 180 -40 87 -20 165 -37 173 -39 34 -7 300 -75 375 -95 44 -12 87
-23 95 -25 8 -2 38 -10 65 -18 28 -9 100 -30 160 -47 269 -77 884 -286 1035
-352 31 -13 40 -17 180 -74 125 -50 127 -51 280 -119 58 -26 132 -59 165 -73
81 -36 511 -251 610 -306 44 -24 112 -60 150 -81 39 -21 77 -43 85 -49 8 -7
35 -22 60 -36 25 -13 56 -31 70 -40 14 -10 79 -50 145 -91 112 -68 444 -286
455 -299 3 -3 39 -30 80 -59 78 -56 367 -277 386 -296 6 -5 30 -26 54 -45 42
-33 84 -68 140 -117 14 -12 36 -31 50 -43 107 -93 225 -204 405 -385 226 -226
321 -328 465 -500 51 -60 102 -119 114 -130 151 -141 442 -101 565 79 30 43
39 74 72 251 39 211 114 467 198 679 49 121 169 362 225 451 71 111 113 174
143 214 260 347 552 597 895 766 62 31 121 60 130 65 10 6 23 10 29 10 6 0 25
6 42 14 85 37 267 89 389 111 308 56 618 54 928 -6 295 -58 509 -137 795 -294
438 -241 810 -589 1062 -995 152 -245 259 -528 288 -760 4 -30 9 -66 11 -80 6
-36 5 -249 -1 -290 -62 -401 -198 -668 -584 -1155 -31 -38 -58 -72 -61 -75 -3
-3 -38 -43 -79 -90 -484 -558 -1160 -1045 -1826 -1315 -181 -74 -201 -85 -261
-138 -84 -75 -134 -191 -127 -292 4 -60 20 -122 37 -150 20 -31 86 -156 163
-305 188 -369 355 -782 467 -1160 25 -85 50 -168 56 -185 9 -28 77 -297 85
-340 37 -176 57 -276 61 -305 3 -19 7 -42 9 -50 2 -8 7 -37 10 -65 4 -27 8
-57 10 -65 2 -8 7 -37 10 -65 4 -27 8 -61 10 -75 7 -43 14 -93 20 -155 4 -33
8 -71 10 -85 3 -23 12 -118 20 -225 22 -292 22 -854 0 -1075 -2 -19 -6 -73
-10 -120 -3 -47 -8 -101 -10 -120 -3 -19 -7 -57 -10 -85 -5 -47 -13 -110 -20
-165 -17 -127 -27 -193 -35 -235 -5 -27 -12 -67 -14 -87 -12 -82 -78 -392
-115 -543 -83 -334 -200 -704 -318 -1005 -75 -192 -82 -215 -78 -273 8 -92 40
-165 115 -257 438 -538 672 -882 978 -1440 215 -393 437 -928 576 -1389 45
-150 102 -357 110 -401 2 -14 11 -52 20 -85 15 -59 43 -185 52 -235 2 -14 7
-36 9 -50 20 -98 23 -116 30 -165 3 -22 10 -62 15 -90 5 -27 12 -72 15 -98 4
-27 8 -56 9 -65 2 -10 7 -44 10 -77 4 -33 9 -71 11 -85 2 -14 7 -52 10 -85 3
-33 7 -82 10 -110 5 -52 10 -117 22 -295 13 -210 6 -813 -11 -1000 -2 -19 -7
-71 -11 -115 -3 -44 -8 -91 -10 -105 -2 -14 -9 -68 -15 -120 -6 -52 -18 -140
-26 -195 -9 -55 -18 -116 -20 -135 -2 -19 -11 -69 -19 -110 -8 -41 -17 -88
-20 -105 -3 -16 -8 -43 -10 -60 -76 -420 -274 -1080 -477 -1590 -104 -260
-350 -782 -474 -1005 -474 -853 -970 -1487 -1704 -2180 -266 -251 -717 -616
-1080 -872 -281 -199 -770 -509 -1040 -660 -25 -14 -61 -34 -80 -45 -524 -295
-1156 -594 -1780 -843 -225 -89 -301 -118 -565 -216 -99 -37 -521 -182 -600
-207 -27 -8 -142 -44 -255 -80 -113 -36 -254 -80 -315 -97 -60 -18 -137 -41
-170 -51 -277 -86 -1146 -314 -1540 -405 -267 -61 -522 -118 -582 -129 -37 -7
-73 -14 -98 -20 -70 -15 -336 -66 -365 -71 -19 -3 -42 -7 -50 -9 -8 -2 -31 -7
-50 -10 -19 -3 -84 -15 -143 -25 -60 -11 -130 -22 -155 -25 -26 -4 -55 -9 -65
-11 -10 -3 -32 -7 -50 -10 -17 -2 -95 -13 -172 -24 -146 -21 -177 -26 -260
-35 -27 -4 -61 -8 -75 -10 -14 -2 -52 -7 -85 -10 -33 -4 -71 -8 -85 -10 -14
-2 -54 -7 -90 -10 -36 -3 -81 -8 -100 -10 -49 -6 -144 -15 -215 -20 -33 -3
-80 -7 -105 -9 -56 -6 -258 -21 -420 -31 -424 -26 -573 -30 -1180 -30 -524 0
-685 3 -1025 20 -73 4 -279 16 -320 19 -16 2 -86 6 -155 11 -69 4 -132 9 -140
10 -8 2 -53 6 -100 9 -47 4 -101 9 -120 11 -89 10 -140 15 -195 20 -113 10
-165 16 -360 41 -66 8 -140 17 -165 20 -60 6 -408 56 -480 69 -14 2 -43 7 -65
10 -22 3 -51 8 -65 10 -14 2 -81 13 -150 25 -158 26 -170 28 -200 35 -14 2
-38 7 -55 10 -50 8 -159 28 -215 40 -14 2 -38 7 -55 10 -33 5 -47 8 -115 23
-25 6 -62 13 -84 16 -21 4 -41 8 -45 10 -3 2 -24 7 -45 10 -42 7 -439 95 -546
121 -36 9 -76 18 -90 21 -54 11 -496 126 -690 180 -113 31 -218 60 -235 64
-16 5 -61 18 -100 30 -38 12 -83 25 -100 30 -45 11 -343 103 -485 149 -747
240 -1654 580 -2175 816 -342 155 -486 224 -610 295 -111 63 -138 78 -235 138
-297 184 -762 515 -1105 787 -52 41 -299 247 -305 254 -3 3 -39 35 -80 71 -41
36 -81 72 -90 80 -9 8 -72 67 -140 130 -197 183 -520 510 -657 666 -284 322
-555 657 -685 844 -36 51 -167 235 -175 245 -24 29 -314 480 -358 557 -5 9
-34 59 -64 110 -397 680 -749 1493 -953 2198 -16 58 -36 128 -44 155 -8 28
-17 57 -19 65 -2 8 -24 96 -49 195 -62 248 -117 510 -141 670 -2 11 -6 36 -10
55 -3 19 -8 51 -11 70 -2 19 -6 42 -9 50 -2 8 -7 39 -10 69 -4 30 -8 61 -10
70 -1 9 -6 44 -10 78 -4 35 -8 75 -10 90 -2 16 -7 57 -10 93 -3 36 -8 76 -10
89 -2 13 -7 67 -10 120 -4 53 -8 112 -11 131 -18 166 -24 786 -11 1050 10 206
23 391 32 460 2 19 6 58 9 85 10 100 17 161 21 185 2 14 7 45 10 70 3 25 7 56
10 70 2 14 7 45 10 70 3 25 8 56 10 70 3 14 7 39 9 55 3 17 8 45 11 63 3 17 7
44 10 60 11 69 16 97 30 162 8 38 17 84 20 102 24 137 137 583 196 773 75 242
205 623 239 700 5 11 37 88 70 170 135 329 307 683 515 1060 130 236 420 697
568 905 73 101 276 378 294 400 6 8 35 44 63 80 76 96 112 140 141 175 14 16
35 41 46 55 50 61 171 201 237 274 39 44 93 105 121 135 84 94 523 531 645
642 105 96 166 149 350 308 107 93 141 201 116 371 -5 30 -10 66 -11 80 -1 14
-6 49 -10 79 -9 70 -16 160 -30 391 -5 83 -5 465 0 550 10 168 16 247 19 275
2 17 7 62 10 100 4 39 9 77 11 85 2 8 6 40 10 70 3 30 7 66 10 80 8 51 36 216
41 245 3 17 7 37 9 45 2 8 6 26 9 40 59 318 221 842 351 1135 7 17 30 68 51
115 62 142 198 410 263 522 142 241 239 388 379 576 113 152 238 300 386 457
68 72 144 153 170 180 196 208 304 448 311 690 5 180 -27 320 -116 500 -99
202 -212 333 -540 628 -278 249 -442 413 -566 567 -59 74 -163 216 -163 224 0
2 -19 35 -42 72 -136 225 -261 599 -308 924 -15 108 -18 177 -16 340 2 113 7
219 10 235 3 17 16 80 27 140 84 437 359 869 751 1182 230 183 605 404 882
518 183 75 479 159 641 180 28 4 61 8 75 10 14 2 68 7 120 11 52 3 96 7 97 8
4 3 198 -3 263 -8z"/>
<path d="M14790 25056 c-69 -22 -156 -88 -222 -168 -67 -81 -143 -258 -164
-383 -4 -22 -8 -49 -10 -60 -26 -139 -26 -568 0 -742 20 -135 79 -280 143
-350 42 -46 107 -91 144 -99 119 -26 219 -16 308 30 65 34 184 150 236 231 65
102 132 245 174 371 22 66 42 132 45 145 2 13 10 47 16 74 31 132 34 368 6
475 -74 286 -247 457 -491 485 -106 13 -122 12 -185 -9z"/>
<path d="M20089 24448 c-184 -65 -348 -315 -385 -588 -3 -25 -8 -54 -10 -65
-8 -41 -16 -214 -17 -340 0 -321 38 -517 129 -661 40 -63 82 -99 154 -133 47
-22 69 -26 150 -26 88 0 101 3 165 34 119 58 248 202 329 369 53 107 63 131
100 238 116 338 119 622 10 862 -77 168 -243 299 -403 317 -146 16 -155 16
-222 -7z"/>
<path d="M13020 18923 c-39 -4 -302 -41 -340 -48 -14 -3 -52 -10 -85 -16 -88
-15 -214 -39 -265 -49 -25 -6 -61 -12 -80 -15 -19 -3 -42 -8 -50 -10 -8 -2
-31 -6 -50 -9 -19 -3 -44 -7 -55 -10 -11 -2 -40 -7 -65 -10 -25 -3 -54 -8 -65
-10 -11 -2 -56 -9 -100 -16 -44 -6 -91 -13 -105 -15 -44 -7 -104 -14 -155 -20
-27 -3 -66 -7 -85 -10 -145 -18 -376 -33 -595 -40 -82 -3 -166 -7 -185 -9 -19
-3 -60 -8 -90 -11 -141 -16 -324 -69 -420 -122 -280 -155 -469 -459 -484 -779
-18 -386 222 -651 646 -711 101 -15 448 -6 518 12 8 2 38 7 67 10 29 3 89 13
135 21 46 8 94 17 108 19 39 6 315 72 420 100 345 93 1043 361 1380 530 349
174 555 351 640 550 11 25 17 45 15 45 -3 0 0 12 6 28 17 44 19 161 4 235 -36
171 -169 299 -359 344 -57 13 -229 22 -306 16z"/>
<path d="M21157 18444 c-1 -1 -27 -4 -57 -5 -73 -4 -156 -29 -232 -72 -126
-71 -194 -176 -206 -318 -13 -154 25 -289 123 -439 88 -133 327 -356 551 -515
23 -16 87 -62 141 -101 160 -116 590 -394 608 -394 2 0 38 -20 80 -45 105 -62
463 -239 611 -302 224 -95 479 -185 593 -209 174 -36 364 -49 466 -30 153 28
285 94 378 191 80 82 153 230 172 345 3 19 8 49 11 65 7 38 6 192 -1 225 -3
14 -8 45 -11 70 -20 150 -133 352 -268 483 -151 145 -321 229 -626 307 -268
69 -474 125 -650 178 -163 50 -457 150 -515 177 -16 7 -59 25 -95 38 -36 14
-144 58 -240 97 -294 120 -494 193 -616 224 -55 14 -211 36 -217 30z"/>
<path d="M9883 12218 c-113 -53 -164 -168 -116 -261 23 -45 269 -360 365 -468
13 -15 34 -40 48 -56 185 -222 628 -671 853 -865 12 -11 36 -32 52 -46 17 -15
73 -63 125 -106 52 -44 101 -85 108 -91 10 -9 -50 -74 -285 -311 -581 -583
-703 -720 -778 -872 -49 -102 -67 -175 -68 -277 0 -170 69 -324 218 -484 42
-46 212 -189 292 -246 197 -141 350 -235 488 -299 65 -31 231 -93 267 -100
146 -30 196 -37 276 -40 399 -11 702 180 1123 709 159 200 371 540 408 657
l12 37 87 -40 c48 -23 130 -58 182 -80 52 -22 109 -46 125 -53 258 -114 942
-335 1205 -390 14 -3 66 -14 115 -25 151 -34 377 -79 430 -86 28 -3 57 -8 65
-10 16 -5 201 -33 260 -40 145 -17 212 -25 260 -29 30 -3 89 -8 130 -12 348
-31 1045 -37 1280 -9 14 1 70 6 125 10 55 4 103 9 108 12 4 2 7 1 7 -4 7 -549
24 -956 56 -1318 25 -287 117 -470 294 -584 64 -42 148 -74 240 -91 54 -11
252 -15 300 -6 14 2 52 8 85 11 33 4 69 9 80 11 11 2 36 6 55 9 19 3 55 10 80
15 25 5 59 12 76 15 51 8 255 63 332 89 111 38 240 95 311 138 34 21 65 38 68
38 15 0 161 121 218 181 119 126 212 297 239 439 3 14 8 36 11 50 13 57 20
164 19 310 0 155 -10 302 -29 425 -3 17 -7 53 -10 80 -4 28 -20 113 -36 190
-16 77 -32 150 -35 162 -8 39 -81 277 -96 313 l-15 35 161 63 c1022 399 1982
978 2830 1705 244 210 595 556 627 620 25 48 27 128 5 181 -32 78 -118 144
-195 152 -89 8 -105 -3 -338 -235 -120 -119 -256 -250 -303 -292 -47 -42 -110
-98 -140 -125 -109 -97 -367 -303 -535 -426 -5 -4 -23 -18 -40 -31 -75 -58
-357 -248 -525 -354 -639 -403 -1429 -767 -2145 -986 -185 -57 -465 -135 -513
-143 -15 -3 -34 -7 -42 -10 -8 -3 -26 -8 -40 -10 -14 -3 -41 -9 -60 -14 -19
-5 -47 -11 -63 -14 -15 -3 -35 -7 -45 -10 -9 -2 -39 -7 -66 -11 -27 -3 -53 -8
-56 -10 -4 -2 -20 -6 -36 -9 -16 -3 -69 -12 -119 -20 -106 -18 -283 -45 -340
-51 -22 -3 -56 -7 -75 -10 -53 -7 -128 -15 -200 -21 -36 -2 -85 -7 -110 -9
-297 -26 -973 -26 -1240 0 -73 7 -172 16 -221 20 -25 2 -63 6 -85 9 -21 3 -92
13 -158 21 -65 8 -128 17 -140 20 -11 2 -39 6 -61 9 -22 3 -51 8 -65 11 -14 3
-40 7 -59 10 -18 2 -41 7 -50 9 -9 3 -34 8 -56 11 -23 3 -52 8 -65 10 -14 3
-45 10 -70 15 -51 10 -147 32 -270 62 -47 11 -92 21 -100 23 -8 2 -35 9 -60
16 -25 7 -49 13 -55 15 -5 1 -44 12 -85 24 -41 12 -100 28 -130 36 -228 62
-756 259 -1055 394 -124 56 -461 225 -585 293 -91 50 -146 81 -182 104 -21 12
-40 23 -43 23 -3 0 -18 8 -33 19 -15 10 -70 44 -122 76 -229 141 -584 388
-750 522 -8 6 -53 42 -100 79 -419 334 -904 805 -1244 1209 -37 44 -76 90 -86
102 -10 12 -46 57 -80 100 -108 138 -139 171 -184 193 -56 27 -154 26 -213 -2z
m1947 -2283 c294 -209 658 -435 965 -599 39 -21 71 -39 73 -41 4 -4 -70 -143
-151 -285 -245 -430 -551 -751 -794 -832 -101 -34 -264 -31 -388 6 -91 27
-267 109 -360 167 -51 32 -210 145 -231 164 -7 5 -22 19 -35 29 -58 46 -167
144 -196 176 -67 72 -83 149 -48 224 16 34 130 167 274 321 176 188 757 762
766 758 5 -4 62 -43 125 -88z m7658 -1297 c37 -117 92 -307 97 -341 3 -18 10
-48 15 -67 8 -31 22 -122 36 -220 2 -19 6 -48 9 -65 18 -122 26 -369 13 -456
-25 -175 -95 -300 -220 -397 -143 -109 -328 -181 -623 -242 -106 -22 -122 -25
-255 -45 -248 -38 -356 14 -393 188 -26 118 -28 153 -43 662 -3 121 -8 256 -9
300 -2 44 -4 161 -5 259 -2 197 -2 195 60 197 19 0 42 2 50 4 8 1 44 8 80 15
127 22 326 62 405 80 45 11 92 21 105 24 69 13 363 91 495 130 83 24 152 45
155 45 3 1 16 -32 28 -71z"/>
</g>
</svg>
